<?xml version="1.0" encoding="utf-8" ?>
<svg baseProfile="full" height="1024" version="1.1" viewBox="0,0,1024,1024" width="1024" xmlns="http://www.w3.org/2000/svg" xmlns:ev="http://www.w3.org/2001/xml-events" xmlns:xlink="http://www.w3.org/1999/xlink"><defs /><path d="M457.00,764.50 L452.00,764.50 L448.00,763.50 L443.50,763.00 L440.50,761.00 L438.00,758.50 L436.00,755.50 L434.00,752.50 L432.50,749.00 L432.50,744.00 L431.50,740.00 L431.50,735.00 L431.50,730.00 L431.50,725.00 L431.50,720.00 L431.50,715.00 L432.50,711.00 L432.50,706.00 L432.50,701.00 L432.50,696.00 L431.00,692.50 L428.50,690.00 L426.00,687.50 L423.50,685.00 L421.00,682.50 L418.50,680.00 L416.50,677.00 L413.50,675.00 L411.50,672.00 L408.00,670.50 L405.00,668.50 L402.50,666.00 L400.00,663.50 L397.00,661.50 L394.50,659.00 L391.50,657.00 L389.00,654.50 L386.00,652.50 L383.50,650.00 L381.00,647.50 L378.00,645.50 L375.50,643.00 L373.00,640.50 L370.50,638.00 L368.00,635.50 L365.00,633.50 L362.50,631.00 L360.00,628.50 L357.50,626.00 L354.50,624.00 L352.00,621.50 L349.00,619.50 L346.50,617.00 L344.00,614.50 L341.50,612.00 L339.00,609.50 L336.50,607.00 L334.50,604.00 L331.50,602.00 L329.00,599.50 L326.50,597.00 L324.00,594.50 L322.00,591.50 L319.00,589.50 L316.50,587.00 L314.50,584.00 L311.50,582.00 L309.50,579.00 L307.00,576.50 L305.00,573.50 L302.00,571.50 L300.00,568.50 L297.50,566.00 L295.00,563.50 L293.00,560.50 L290.50,558.00 L288.00,555.50 L285.50,553.00 L283.00,550.50 L281.00,547.50 L279.00,544.50 L276.50,542.00 L274.00,539.50 L271.50,537.00 L269.50,534.00 L267.00,531.50 L264.00,529.50 L260.50,529.00 L259.00,532.50 L257.50,536.00 L257.50,541.00 L256.50,545.00 L255.50,549.00 L254.50,553.00 L253.50,557.00 L253.50,562.00 L252.50,566.00 L251.50,570.00 L251.50,575.00 L250.50,579.00 L249.50,583.00 L249.00,587.50 L248.50,592.00 L247.50,596.00 L246.50,600.00 L246.50,605.00 L245.50,609.00 L244.50,613.00 L244.50,618.00 L243.50,622.00 L242.50,626.00 L241.50,630.00 L241.50,635.00 L240.50,639.00 L239.50,643.00 L238.50,647.00 L238.50,652.00 L238.50,657.00 L237.50,661.00 L237.50,666.00 L237.50,671.00 L236.50,675.00 L235.50,679.00 L235.50,684.00 L235.50,689.00 L234.50,693.00 L234.00,697.50 L232.50,701.00 L231.00,704.50 L229.00,707.50 L226.50,710.00 L223.50,712.00 L220.00,713.50 L215.00,713.50 L210.50,713.00 L207.00,711.50 L204.00,709.50 L201.50,707.00 L199.00,704.50 L197.00,701.50 L195.50,698.00 L194.00,694.50 L192.50,691.00 L192.50,686.00 L192.50,681.00 L193.50,677.00 L193.50,672.00 L193.50,667.00 L194.50,663.00 L195.50,659.00 L195.50,654.00 L196.50,650.00 L196.50,645.00 L197.50,641.00 L198.50,637.00 L198.50,632.00 L199.50,628.00 L200.50,624.00 L201.50,620.00 L201.50,615.00 L202.50,611.00 L203.50,607.00 L204.50,603.00 L205.00,598.50 L205.50,594.00 L206.50,590.00 L207.50,586.00 L208.50,582.00 L209.00,577.50 L209.50,573.00 L210.50,569.00 L211.50,565.00 L211.50,560.00 L212.50,556.00 L213.50,552.00 L214.50,548.00 L215.50,544.00 L215.50,539.00 L216.50,535.00 L217.50,531.00 L217.50,526.00 L218.50,522.00 L219.50,518.00 L220.50,514.00 L221.50,510.00 L221.50,505.00 L222.50,501.00 L223.50,497.00 L224.50,493.00 L224.50,488.00 L225.50,484.00 L226.50,480.00 L227.50,476.00 L228.50,472.00 L229.00,467.50 L229.50,463.00 L230.50,459.00 L231.50,455.00 L232.50,451.00 L233.50,447.00 L234.50,443.00 L235.00,438.50 L235.50,434.00 L237.00,430.50 L238.00,426.50 L238.50,422.00 L239.50,418.00 L240.50,414.00 L241.50,410.00 L241.50,405.00 L243.00,401.50 L243.50,397.00 L244.50,393.00 L245.50,389.00 L246.00,384.50 L247.00,380.50 L248.50,377.00 L248.50,372.00 L249.50,368.00 L250.50,364.00 L251.50,360.00 L252.50,356.00 L253.50,352.00 L254.50,348.00 L254.50,343.00 L255.50,339.00 L256.50,335.00 L257.50,331.00 L258.50,327.00 L259.50,323.00 L260.50,319.00 L260.50,314.00 L261.50,310.00 L262.50,306.00 L264.00,302.50 L264.50,298.00 L265.50,294.00 L266.50,290.00 L267.50,286.00 L268.50,282.00 L269.50,278.00 L269.50,273.00 L271.00,269.50 L271.50,265.00 L272.50,261.00 L274.50,258.00 L274.50,253.00 L276.00,249.50 L276.50,245.00 L277.50,241.00 L278.50,237.00 L280.00,233.50 L281.00,229.50 L282.50,226.00 L284.50,223.00 L284.50,218.00 L285.50,214.00 L287.00,210.50 L288.50,207.00 L290.50,204.00 L294.00,202.50 L299.00,202.50 L303.00,201.50 L307.00,202.50 L310.00,204.50 L313.50,206.00 L316.00,208.50 L318.50,211.00 L320.50,214.00 L322.50,217.00 L323.50,221.00 L323.50,226.00 L322.50,230.00 L321.50,234.00 L320.50,238.00 L319.50,242.00 L318.00,245.50 L316.50,249.00 L315.50,253.00 L314.00,256.50 L313.50,261.00 L312.00,264.50 L311.00,268.50 L310.50,273.00 L309.00,276.50 L308.50,281.00 L306.50,284.00 L306.50,289.00 L305.50,293.00 L304.50,297.00 L303.50,301.00 L303.00,305.50 L301.50,309.00 L300.50,313.00 L300.50,318.00 L299.00,321.50 L298.50,326.00 L297.50,330.00 L297.00,334.50 L295.50,338.00 L295.50,343.00 L294.50,347.00 L293.50,351.00 L292.50,355.00 L291.50,359.00 L290.50,363.00 L289.50,367.00 L288.50,371.00 L287.50,375.00 L287.00,378.50 L286.50,382.00 L286.50,387.00 L285.50,391.00 L284.50,395.00 L283.50,399.00 L283.00,403.50 L281.50,407.00 L281.50,412.00 L280.50,416.00 L279.50,420.00 L279.50,425.00 L278.50,429.00 L277.50,433.00 L276.50,437.00 L275.50,441.00 L275.50,446.00 L274.50,450.00 L273.50,454.00 L272.50,458.00 L273.00,462.50 L276.00,460.50 L278.50,458.00 L280.50,455.00 L283.00,452.50 L285.50,450.00 L288.00,447.50 L290.50,445.00 L292.50,442.00 L295.00,439.50 L297.50,437.00 L300.00,434.50 L302.50,432.00 L305.00,429.50 L307.50,427.00 L310.00,424.50 L312.50,422.00 L315.00,419.50 L317.50,417.00 L320.00,414.50 L322.50,412.00 L325.00,409.50 L327.50,407.00 L330.00,404.50 L332.50,402.00 L335.00,399.50 L337.50,397.00 L340.00,394.50 L343.00,392.50 L345.00,389.50 L347.50,387.00 L350.50,385.00 L353.00,382.50 L355.00,379.50 L358.00,377.50 L360.50,375.00 L362.50,372.00 L365.00,369.50 L368.00,367.50 L370.50,365.00 L372.50,362.00 L375.50,360.00 L378.00,357.50 L380.50,355.00 L383.00,352.50 L385.50,350.00 L388.00,347.50 L390.50,345.00 L393.50,343.00 L396.00,340.50 L399.00,338.50 L402.00,336.50 L404.50,334.00 L406.50,331.00 L409.00,328.50 L411.50,326.00 L414.00,323.50 L417.00,321.50 L419.50,319.00 L422.50,317.00 L425.00,314.50 L427.50,312.00 L430.50,310.00 L433.50,308.00 L436.00,305.50 L439.00,303.50 L441.00,300.50 L443.50,298.00 L446.50,296.00 L449.00,293.50 L452.00,291.50 L454.50,289.00 L457.00,286.50 L460.00,284.50 L462.50,282.00 L465.50,280.00 L468.00,277.50 L471.00,275.50 L473.50,273.00 L476.50,271.00 L479.00,268.50 L482.00,266.50 L484.50,264.00 L487.50,262.00 L490.50,260.00 L493.50,258.00 L496.00,255.50 L499.00,253.50 L502.00,251.50 L504.50,249.00 L507.00,246.50 L510.00,244.50 L513.00,242.50 L516.50,241.00 L519.50,239.00 L522.50,237.00 L525.00,234.50 L528.00,232.50 L531.00,230.50 L534.00,228.50 L537.00,226.50 L540.50,225.00 L544.00,223.50 L547.50,222.00 L550.00,219.50 L553.00,217.50 L556.50,216.00 L560.00,214.50 L564.00,213.50 L568.00,212.50 L571.50,212.00 L576.00,212.50 L580.00,213.50 L583.00,215.50 L585.00,218.50 L586.50,222.00 L587.50,226.00 L587.50,231.00 L586.00,234.50 L583.00,236.50 L579.50,238.00 L576.50,240.00 L573.50,242.00 L570.00,243.50 L567.00,245.50 L563.50,247.00 L560.50,249.00 L557.50,251.00 L554.50,253.00 L552.00,255.50 L549.00,257.50 L546.00,259.50 L543.00,261.50 L539.50,263.00 L537.00,265.50 L534.50,268.00 L531.50,270.00 L528.50,272.00 L526.00,274.50 L523.00,276.50 L520.50,279.00 L517.00,280.50 L514.50,283.00 L512.00,285.50 L509.00,287.50 L506.00,289.50 L503.00,291.50 L500.00,293.50 L498.00,296.50 L495.00,298.50 L492.00,300.50 L489.00,302.50 L486.50,305.00 L484.00,307.50 L481.50,310.00 L479.00,312.50 L476.00,314.50 L473.00,316.50 L470.50,319.00 L467.50,321.00 L465.00,323.50 L462.50,326.00 L459.50,328.00 L457.00,330.50 L454.00,332.50 L451.50,335.00 L448.50,337.00 L446.00,339.50 L443.50,342.00 L441.00,344.50 L438.50,347.00 L436.00,349.50 L433.00,351.50 L430.50,354.00 L427.50,356.00 L425.00,358.50 L422.50,361.00 L420.00,363.50 L417.00,365.50 L414.50,368.00 L412.00,370.50 L409.50,373.00 L407.00,375.50 L404.50,378.00 L402.00,380.50 L399.00,382.50 L396.50,385.00 L394.00,387.50 L391.50,390.00 L389.00,392.50 L386.50,395.00 L383.50,397.00 L381.00,399.50 L378.50,402.00 L376.50,405.00 L374.00,407.50 L371.00,409.50 L368.50,412.00 L366.00,414.50 L364.00,417.50 L361.50,420.00 L358.50,422.00 L356.00,424.50 L353.50,427.00 L351.00,429.50 L348.50,432.00 L345.50,434.00 L343.50,437.00 L341.00,439.50 L338.50,442.00 L336.50,445.00 L334.00,447.50 L331.50,450.00 L329.00,452.50 L326.50,455.00 L324.00,457.50 L322.00,460.50 L319.50,463.00 L317.00,465.50 L314.50,468.00 L312.00,470.50 L310.00,473.50 L307.50,476.00 L305.50,479.00 L302.50,481.00 L300.50,484.00 L298.50,487.00 L297.00,490.50 L296.50,495.00 L297.50,499.00 L299.50,502.00 L301.50,505.00 L303.00,508.50 L305.00,511.50 L306.50,515.00 L309.00,517.50 L311.50,520.00 L314.00,522.50 L316.00,525.50 L318.50,528.00 L320.50,531.00 L322.00,534.50 L325.00,536.50 L327.50,539.00 L329.50,542.00 L332.00,544.50 L334.50,547.00 L336.50,550.00 L339.00,552.50 L341.50,555.00 L343.50,558.00 L346.00,560.50 L349.00,562.50 L351.50,565.00 L354.00,567.50 L356.50,570.00 L359.00,572.50 L361.50,575.00 L364.00,577.50 L366.00,580.50 L369.00,582.50 L371.50,585.00 L374.00,587.50 L376.00,590.50 L378.50,593.00 L381.50,595.00 L384.00,597.50 L386.50,600.00 L389.00,602.50 L391.50,605.00 L394.00,607.50 L397.00,609.50 L399.50,612.00 L402.00,614.50 L404.50,617.00 L407.00,619.50 L410.00,621.50 L412.50,624.00 L415.50,626.00 L418.00,628.50 L420.50,631.00 L423.00,633.50 L426.00,635.50 L428.50,638.00 L431.00,640.50 L434.00,642.50 L436.50,645.00 L439.50,646.00 L440.50,642.00 L441.50,638.00 L442.50,634.00 L443.50,630.00 L444.50,626.00 L445.50,622.00 L446.50,618.00 L447.50,614.00 L448.50,610.00 L449.00,605.50 L449.50,601.00 L450.50,597.00 L451.50,593.00 L452.00,588.50 L453.00,584.50 L453.50,580.00 L454.50,576.00 L455.50,572.00 L456.50,568.00 L457.50,564.00 L458.50,560.00 L459.50,556.00 L460.00,551.50 L461.00,547.50 L462.00,543.50 L463.00,539.50 L463.50,535.00 L465.50,532.00 L465.50,527.00 L466.50,523.00 L467.50,519.00 L468.50,515.00 L469.50,511.00 L470.50,507.00 L471.50,503.00 L472.50,499.00 L473.50,495.00 L474.50,491.00 L475.50,487.00 L476.50,483.00 L477.50,479.00 L478.50,475.00 L479.50,471.00 L480.50,467.00 L481.50,463.00 L482.50,459.00 L483.50,455.00 L484.50,451.00 L485.50,447.00 L487.00,443.50 L487.50,439.00 L489.00,435.50 L490.50,432.00 L491.50,428.00 L492.50,424.00 L493.50,420.00 L495.00,416.50 L496.50,413.00 L497.50,409.00 L498.50,405.00 L500.00,401.50 L501.50,398.00 L502.50,394.00 L504.50,391.00 L505.50,387.00 L507.50,384.00 L509.00,380.50 L510.50,377.00 L511.50,373.00 L513.00,369.50 L514.50,366.00 L516.50,363.00 L518.50,360.00 L520.00,356.50 L521.50,353.00 L524.00,350.50 L526.00,347.50 L528.50,345.00 L531.00,342.50 L534.00,340.50 L537.00,338.50 L541.00,337.50 L545.00,336.50 L548.50,335.00 L553.00,334.50 L557.50,335.00 L562.00,335.50 L566.00,336.50 L569.50,338.00 L572.50,340.00 L575.00,342.50 L577.50,345.00 L580.00,347.50 L582.50,350.00 L584.00,353.50 L585.50,357.00 L587.00,360.50 L588.50,364.00 L589.50,368.00 L591.00,371.50 L592.50,375.00 L593.50,379.00 L594.50,383.00 L595.50,387.00 L596.00,391.50 L597.50,395.00 L598.50,399.00 L599.50,403.00 L601.00,406.50 L602.50,410.00 L603.50,414.00 L604.50,418.00 L605.00,422.50 L606.50,426.00 L607.50,430.00 L608.50,434.00 L609.50,438.00 L610.50,442.00 L611.50,446.00 L612.50,450.00 L614.00,453.50 L615.50,457.00 L615.50,462.00 L617.00,465.50 L618.00,469.50 L619.50,473.00 L620.50,477.00 L621.50,481.00 L622.50,485.00 L623.50,489.00 L625.50,492.00 L626.50,496.00 L627.50,500.00 L629.00,503.50 L629.50,508.00 L631.50,511.00 L632.50,515.00 L633.50,519.00 L635.00,522.50 L636.00,526.50 L637.50,530.00 L638.50,534.00 L640.00,537.50 L641.50,541.00 L642.50,545.00 L644.50,548.00 L645.50,552.00 L646.50,556.00 L647.50,560.00 L650.00,562.50 L651.00,566.50 L652.00,570.50 L653.50,574.00 L654.50,578.00 L656.00,581.50 L657.50,585.00 L659.00,588.50 L660.50,592.00 L662.00,595.50 L663.50,599.00 L664.50,603.00 L666.50,606.00 L668.50,609.00 L669.50,613.00 L671.00,616.50 L672.50,620.00 L674.00,623.50 L675.50,627.00 L677.50,630.00 L678.50,634.00 L680.50,637.00 L682.50,640.00 L683.50,644.00 L685.50,647.00 L687.50,650.00 L689.00,653.50 L691.00,656.50 L693.00,659.50 L696.00,661.50 L698.00,658.50 L698.50,654.00 L699.50,650.00 L700.50,646.00 L700.50,641.00 L701.00,636.50 L701.50,632.00 L701.50,627.00 L702.50,623.00 L703.00,618.50 L703.50,614.00 L704.50,610.00 L704.50,605.00 L705.50,601.00 L705.50,596.00 L706.50,592.00 L706.50,587.00 L707.50,583.00 L708.50,579.00 L708.50,574.00 L709.50,570.00 L710.50,566.00 L710.50,561.00 L711.50,557.00 L712.50,553.00 L712.50,548.00 L713.50,544.00 L714.50,540.00 L715.00,535.50 L715.50,531.00 L716.50,527.00 L717.50,523.00 L717.50,520.00 L718.50,516.00 L718.50,511.00 L719.50,507.00 L720.50,503.00 L721.00,498.50 L721.50,494.00 L722.50,490.00 L723.50,486.00 L724.50,482.00 L725.00,477.50 L725.50,473.00 L726.50,469.00 L727.50,465.00 L728.50,461.00 L729.50,457.00 L730.50,453.00 L730.50,448.00 L731.50,444.00 L732.50,440.00 L733.50,436.00 L734.50,432.00 L735.50,428.00 L736.50,424.00 L737.50,420.00 L737.50,415.00 L739.00,411.50 L740.00,407.50 L741.50,404.00 L741.50,399.00 L742.50,395.00 L744.50,392.00 L745.00,387.50 L746.50,384.00 L747.50,380.00 L748.00,375.50 L749.00,371.50 L750.00,367.50 L751.50,364.00 L752.50,360.00 L753.50,356.00 L754.50,352.00 L756.00,348.50 L757.50,345.00 L758.00,340.50 L760.00,337.50 L761.50,334.00 L762.50,330.00 L762.50,325.00 L764.50,322.00 L766.00,318.50 L768.00,315.50 L769.50,312.00 L771.50,309.00 L774.00,306.50 L777.00,304.50 L780.50,303.00 L784.50,302.00 L789.00,301.50 L793.50,302.00 L797.00,303.50 L800.50,305.00 L803.00,307.50 L805.00,310.50 L806.50,314.00 L807.50,318.00 L807.50,323.00 L806.50,327.00 L805.00,330.50 L803.50,334.00 L801.50,337.00 L800.00,340.50 L798.50,344.00 L797.50,348.00 L796.00,351.50 L794.50,355.00 L793.50,359.00 L792.50,363.00 L790.50,366.00 L789.50,370.00 L788.50,374.00 L787.00,377.50 L785.50,381.00 L785.00,385.50 L783.50,389.00 L783.00,393.50 L782.50,398.00 L781.50,402.00 L780.00,405.50 L779.50,410.00 L778.50,414.00 L777.50,418.00 L776.50,422.00 L776.00,426.50 L774.50,430.00 L774.00,434.50 L773.00,438.50 L772.50,443.00 L771.50,447.00 L770.50,451.00 L769.50,455.00 L769.50,460.00 L768.00,463.50 L767.50,468.00 L766.50,472.00 L765.50,476.00 L764.50,480.00 L764.00,484.50 L763.50,489.00 L762.50,493.00 L761.50,497.00 L761.00,501.50 L760.50,506.00 L759.50,510.00 L758.50,514.00 L757.50,518.00 L757.00,522.50 L756.50,527.00 L755.50,531.00 L754.50,535.00 L753.50,539.00 L752.50,543.00 L752.50,548.00 L751.50,552.00 L751.50,557.00 L750.50,561.00 L750.50,566.00 L750.00,569.50 L749.50,573.00 L748.50,577.00 L747.50,581.00 L747.50,586.00 L746.50,590.00 L746.50,595.00 L746.50,600.00 L745.50,604.00 L744.50,608.00 L744.50,613.00 L744.00,617.50 L743.50,622.00 L743.50,625.00 L742.50,629.00 L742.50,634.00 L741.50,638.00 L741.50,643.00 L740.50,647.00 L740.50,652.00 L739.50,656.00 L739.50,661.00 L738.50,665.00 L737.50,669.00 L737.50,674.00 L737.50,679.00 L736.50,683.00 L736.50,688.00 L735.50,692.00 L734.50,696.00 L733.50,700.00 L732.50,704.00 L731.00,707.50 L729.50,711.00 L727.50,714.00 L725.50,717.00 L723.50,720.00 L721.00,722.50 L718.00,724.50 L715.00,726.50 L711.00,727.50 L707.00,728.50 L702.00,728.50 L698.00,727.50 L694.00,726.50 L691.00,724.50 L688.00,722.50 L685.00,720.50 L683.00,717.50 L680.50,715.00 L678.50,712.00 L676.00,709.50 L674.50,706.00 L672.00,703.50 L670.50,700.00 L669.00,696.50 L667.00,693.50 L665.50,690.00 L663.50,687.00 L661.50,684.00 L660.00,680.50 L658.50,677.00 L656.50,674.00 L654.50,671.00 L653.00,667.50 L651.50,664.00 L649.50,661.00 L648.00,657.50 L646.50,654.00 L645.00,650.50 L643.50,647.00 L641.50,644.00 L640.00,640.50 L638.50,637.00 L637.00,633.50 L635.00,630.50 L633.50,627.00 L632.50,623.00 L630.50,620.00 L629.00,616.50 L628.00,612.50 L626.00,609.50 L624.50,606.00 L623.00,602.50 L622.50,598.00 L620.50,595.00 L619.00,591.50 L617.50,588.00 L616.00,584.50 L614.50,581.00 L613.50,577.00 L612.00,573.50 L610.50,570.00 L609.50,566.00 L608.50,562.00 L607.00,558.50 L605.50,555.00 L604.50,551.00 L602.50,548.00 L601.50,544.00 L600.50,540.00 L599.00,536.50 L597.50,533.00 L596.50,529.00 L595.50,525.00 L594.50,521.00 L592.50,518.00 L591.50,514.00 L590.50,510.00 L589.00,506.50 L588.50,502.00 L586.50,499.00 L585.50,495.00 L584.00,491.50 L583.00,487.50 L581.50,484.00 L580.50,480.00 L579.50,476.00 L578.50,472.00 L577.50,468.00 L576.50,464.00 L575.50,460.00 L574.00,456.50 L572.50,453.00 L571.50,449.00 L570.50,445.00 L569.00,441.50 L567.50,438.00 L566.50,434.00 L565.50,430.00 L564.50,426.00 L563.50,422.00 L562.50,418.00 L560.50,415.00 L559.50,411.00 L559.00,406.50 L558.00,402.50 L556.50,399.00 L555.00,395.50 L552.50,394.00 L550.50,397.00 L548.50,400.00 L546.50,403.00 L545.00,406.50 L543.50,410.00 L542.50,414.00 L540.50,417.00 L539.00,420.50 L538.00,424.50 L536.50,428.00 L535.50,432.00 L534.00,435.50 L532.50,439.00 L530.50,442.00 L529.50,446.00 L528.50,450.00 L527.00,453.50 L525.50,457.00 L524.50,461.00 L522.50,464.00 L522.00,468.50 L520.50,472.00 L519.50,476.00 L518.50,480.00 L517.50,484.00 L516.50,488.00 L515.00,491.50 L514.50,496.00 L512.50,499.00 L512.50,504.00 L511.00,507.50 L510.00,511.50 L509.00,515.50 L507.50,519.00 L506.50,523.00 L506.50,528.00 L505.50,532.00 L504.00,535.50 L503.00,539.50 L502.50,544.00 L501.00,547.50 L500.50,552.00 L499.50,556.00 L498.50,560.00 L497.50,564.00 L496.50,568.00 L495.50,572.00 L494.50,576.00 L494.00,580.50 L492.50,584.00 L492.50,589.00 L491.50,593.00 L490.50,597.00 L489.50,601.00 L488.50,605.00 L488.00,609.50 L487.50,614.00 L486.50,618.00 L485.50,622.00 L484.50,626.00 L484.50,631.00 L483.50,635.00 L483.00,639.50 L482.50,644.00 L481.50,648.00 L481.00,652.50 L480.50,657.00 L480.50,662.00 L479.50,666.00 L479.50,671.00 L478.50,675.00 L478.50,680.00 L481.00,682.50 L483.50,685.00 L486.50,687.00 L489.00,689.50 L492.00,691.50 L494.50,694.00 L497.00,696.50 L500.00,698.50 L503.00,700.50 L505.50,703.00 L508.50,705.00 L512.00,706.50 L515.00,708.50 L518.50,710.00 L522.00,711.50 L525.00,713.50 L527.50,716.00 L528.50,720.00 L528.00,724.50 L525.50,727.00 L523.50,730.00 L520.50,732.00 L517.50,734.00 L514.00,735.50 L510.50,737.00 L506.00,737.50 L502.00,736.50 L498.00,735.50 L494.00,734.50 L490.50,733.00 L487.00,731.50 L484.00,729.50 L481.50,727.00 L478.50,725.00 L476.00,722.50 L472.50,724.00 L471.50,728.00 L471.50,733.00 L471.50,738.00 L472.50,742.00 L472.50,747.00 L472.50,752.00 L471.50,756.00 L469.00,758.50 L466.50,761.00 L463.00,762.50 L459.00,763.50 Z" fill="black" stroke="none" /></svg>